# xmcd
#
# Track frame offsets:
#	150
#	21466
#	43116
#	62706
#	78661
#	95473
#	115609
#	136054
#	152902
#	168928
#	192509
#
# Disc length: 2886 seconds
# Revision: 0
# Processed by: cddbd v1.5.2PL0 Copyright (c) Steve Scherf et al.
# Submitted via: dBpowerAMP V12.0
#
DISCID=900b440b
DTITLE=The Mighty Boss Cats - Boiling Pot 
DYEAR=2013
DGENRE=Blues
TTITLE0=I Need A Friend
TTITLE1=Boiling Pot
TTITLE2=2:45 Express to Nowhere
TTITLE3=Elvis Coming Home
TTITLE4=Bad Luck Blues
TTITLE5=Candy Man
TTITLE6=The Devil Inside
TTITLE7=Lordy Lordy Lordy
TTITLE8=Switch The Tracks
TTITLE9=Take Me To Waco Station
TTITLE10=Pride
EXTD=
EXTT0=
EXTT1=
EXTT2=
EXTT3=
EXTT4=
EXTT5=
EXTT6=
EXTT7=
EXTT8=
EXTT9=
EXTT10=
PLAYORDER=
